{"glyphs":{"0":{"ha":1821,"x_min":102,"x_max":1719,"o":"m 385 808 q 299 773 334 808 q 263 688 263 737 l 263 283 q 299 197 263 233 q 385 161 334 161 l 1436 161 q 1522 197 1486 161 q 1557 283 1557 233 l 1557 688 q 1522 773 1557 737 q 1436 808 1486 808 l 385 808 m 385 0 q 184 83 268 0 q 102 283 102 166 l 102 688 q 184 887 102 804 q 385 970 268 970 l 1436 970 q 1636 887 1553 970 q 1719 688 1719 804 l 1719 283 q 1636 83 1719 166 q 1436 0 1553 0 l 385 0 z "},"1":{"ha":1242,"x_min":102,"x_max":1140,"o":"m 932 970 l 102 671 l 102 499 l 978 815 l 978 0 l 1140 0 l 1140 970 l 932 970 z "},"2":{"ha":1830,"x_min":102,"x_max":1728,"o":"m 1627 663 l 1631 665 q 1705 741 1682 691 q 1714 846 1728 791 q 1657 937 1701 902 q 1557 970 1614 970 l 102 970 l 102 808 l 1557 808 l 102 169 l 102 0 l 1719 0 l 1719 161 l 487 161 l 1627 663 z "},"3":{"ha":1821,"x_min":102,"x_max":1719,"o":"m 1719 688 q 1636 887 1719 804 q 1436 970 1553 970 l 102 970 l 102 808 l 1436 808 q 1522 773 1486 808 q 1557 688 1557 737 q 1522 602 1557 637 q 1436 566 1486 566 l 102 566 l 102 404 l 1436 404 q 1522 369 1486 404 q 1557 283 1557 333 q 1522 197 1557 233 q 1436 161 1486 161 l 102 161 l 102 0 l 1436 0 q 1636 83 1553 0 q 1719 283 1719 166 q 1634 485 1719 402 q 1719 688 1719 568 z "},"4":{"ha":1813,"x_min":102,"x_max":1712,"o":"m 910 970 l 102 161 l 1308 161 l 1308 0 l 1470 0 l 1470 161 l 1712 161 l 1712 323 l 1470 323 l 1470 566 l 1308 566 l 1308 323 l 492 323 l 1139 970 l 910 970 z "},"5":{"ha":1821,"x_min":102,"x_max":1719,"o":"m 102 0 l 102 161 l 1436 161 q 1522 197 1486 161 q 1557 283 1557 233 q 1522 369 1557 333 q 1436 404 1486 404 l 102 404 l 102 970 l 1678 970 l 1678 808 l 263 808 l 263 566 l 1436 566 q 1636 483 1553 566 q 1719 283 1719 400 q 1636 83 1719 166 q 1436 0 1553 0 l 102 0 z "},"6":{"ha":1821,"x_min":102,"x_max":1719,"o":"m 263 404 l 263 283 q 299 197 263 233 q 385 161 334 161 l 1436 161 q 1522 197 1486 161 q 1557 283 1557 233 q 1522 369 1557 333 q 1436 404 1486 404 l 263 404 m 385 0 q 184 83 268 0 q 102 283 102 166 l 102 688 q 184 887 102 804 q 385 970 268 970 l 1678 970 l 1678 808 l 385 808 q 299 773 334 808 q 263 688 263 737 l 263 566 l 1436 566 q 1636 483 1553 566 q 1719 283 1719 400 q 1636 83 1719 166 q 1436 0 1553 0 l 385 0 z "},"7":{"ha":1777,"x_min":102,"x_max":1675,"o":"m 102 970 l 102 808 l 1358 808 l 773 0 l 972 0 l 1675 970 l 102 970 z "},"8":{"ha":1821,"x_min":102,"x_max":1719,"o":"m 385 161 q 299 197 334 161 q 263 283 263 233 q 299 369 263 333 q 385 404 334 404 l 1436 404 q 1522 369 1486 404 q 1557 283 1557 333 q 1522 197 1557 233 q 1436 161 1486 161 l 385 161 m 263 688 q 299 773 263 737 q 385 808 334 808 l 1436 808 q 1522 773 1486 808 q 1557 688 1557 737 q 1522 602 1557 637 q 1436 566 1486 566 l 385 566 q 299 602 334 566 q 263 688 263 637 m 1634 485 q 1719 688 1719 568 q 1636 887 1719 804 q 1436 970 1553 970 l 385 970 q 184 887 268 970 q 102 688 102 804 q 187 485 102 568 q 102 283 102 401 q 184 83 102 166 q 385 0 268 0 l 1436 0 q 1636 83 1553 0 q 1719 283 1719 166 q 1634 485 1719 401 z "},"9":{"ha":1821,"x_min":102,"x_max":1719,"o":"m 385 808 q 299 773 334 808 q 263 688 263 737 q 299 602 263 637 q 385 566 334 566 l 1557 566 l 1557 688 q 1522 773 1557 737 q 1436 808 1486 808 l 385 808 m 1719 0 l 1557 0 l 1557 404 l 385 404 q 184 488 268 404 q 102 688 102 570 q 184 887 102 804 q 385 970 268 970 l 1436 970 q 1636 887 1553 970 q 1719 688 1719 804 l 1719 0 z "},"\u0000":{"ha":0,"x_min":0,"x_max":0,"o":""},"\u001d":{"ha":0,"x_min":0,"x_max":0,"o":""}," ":{"ha":345,"x_min":0,"x_max":0,"o":""}," ":{"ha":345,"x_min":0,"x_max":0,"o":""},"!":{"ha":365,"x_min":102,"x_max":263,"o":"m 102 0 l 263 0 l 263 161 l 102 161 l 102 0 m 102 243 l 263 243 l 263 970 l 102 970 l 102 243 z "},"#":{"ha":1417,"x_min":102,"x_max":1315,"o":"m 1056 970 l 985 728 l 573 728 l 644 970 l 481 970 l 411 728 l 182 728 l 182 566 l 364 566 l 317 404 l 102 404 l 102 243 l 269 243 l 199 0 l 361 0 l 431 243 l 844 243 l 773 0 l 935 0 l 1005 243 l 1234 243 l 1234 404 l 1053 404 l 1100 566 l 1315 566 l 1315 728 l 1147 728 l 1217 970 l 1056 970 m 526 566 l 938 566 l 891 404 l 478 404 l 526 566 z "},"%":{"ha":1942,"x_min":102,"x_max":1841,"o":"m 385 808 q 299 773 334 808 q 263 688 263 737 l 263 606 q 299 521 263 556 q 385 485 334 485 l 547 485 q 632 521 597 485 q 668 606 668 556 l 668 688 q 632 773 668 737 q 547 808 597 808 l 385 808 m 385 323 q 184 406 268 323 q 102 606 102 490 l 102 688 q 184 887 102 804 q 385 970 268 970 l 547 970 q 747 887 663 970 q 829 688 829 804 l 829 606 q 747 406 829 490 q 547 323 663 323 l 385 323 m 1396 485 q 1310 450 1345 485 q 1274 364 1274 414 l 1274 283 q 1310 197 1274 233 q 1396 161 1345 161 l 1557 161 q 1643 197 1607 161 q 1678 283 1678 233 l 1678 364 q 1643 450 1678 414 q 1557 485 1607 485 l 1396 485 m 1396 0 q 1196 83 1278 0 q 1112 283 1112 166 l 1112 364 q 1196 564 1112 481 q 1396 647 1278 647 l 1557 647 q 1757 564 1674 647 q 1841 364 1841 481 l 1841 283 q 1757 83 1841 166 q 1557 0 1674 0 l 1396 0 m 910 0 l 749 0 l 1031 970 l 1194 970 l 910 0 z "},"&":{"ha":1780,"x_min":102,"x_max":1678,"o":"m 1396 283 q 1360 197 1396 233 q 1274 161 1324 161 l 385 161 q 299 197 334 161 q 263 283 263 233 q 299 369 263 333 q 385 404 334 404 l 1396 404 l 1396 283 m 1557 566 l 1557 688 l 1396 688 l 1396 566 l 385 566 q 299 602 334 566 q 263 688 263 637 q 299 773 263 737 q 385 808 334 808 l 1476 808 l 1476 970 l 385 970 q 184 887 268 970 q 102 688 102 804 q 187 485 102 568 q 102 283 102 401 q 184 83 102 166 q 385 0 268 0 l 1274 0 q 1474 83 1391 0 q 1557 283 1557 166 l 1557 404 l 1678 404 l 1678 566 l 1557 566 z "},"(":{"ha":486,"x_min":102,"x_max":385,"o":"m 385 1213 q 184 1130 268 1213 q 102 930 102 1047 l 102 40 q 184 -160 102 -77 q 385 -243 268 -243 l 385 -81 q 299 -45 334 -81 q 263 40 263 -10 l 263 930 q 299 1015 263 980 q 385 1051 334 1051 l 385 1213 z "},")":{"ha":486,"x_min":102,"x_max":385,"o":"m 102 1051 q 187 1015 152 1051 q 223 930 223 980 l 223 40 q 187 -45 223 -10 q 102 -81 152 -81 l 102 -243 q 302 -160 219 -243 q 385 40 385 -77 l 385 930 q 302 1130 385 1047 q 102 1213 219 1213 l 102 1051 z "},",":{"ha":486,"x_min":102,"x_max":385,"o":"m 102 -81 q 187 -45 152 -81 q 223 40 223 -10 l 223 161 l 385 161 l 385 40 q 302 -160 385 -77 q 102 -243 219 -243 l 102 -81 z "},"-":{"ha":1335,"x_min":102,"x_max":1234,"o":"m 102 404 l 1234 404 l 1234 566 l 102 566 l 102 404 z "},"­":{"ha":1335,"x_min":102,"x_max":1234,"o":"m 102 404 l 1234 404 l 1234 566 l 102 566 l 102 404 z "},".":{"ha":365,"x_min":102,"x_max":263,"o":"m 102 0 l 263 0 l 263 161 l 102 161 l 102 0 z "},"/":{"ha":648,"x_min":102,"x_max":547,"o":"m 385 970 l 102 0 l 263 0 l 547 970 l 385 970 z "},":":{"ha":365,"x_min":102,"x_max":263,"o":"m 102 0 l 263 0 l 263 161 l 102 161 l 102 0 m 102 404 l 263 404 l 263 566 l 102 566 l 102 404 z "},";":{"ha":486,"x_min":102,"x_max":385,"o":"m 102 -81 q 187 -45 152 -81 q 223 40 223 -10 l 223 161 l 385 161 l 385 40 q 302 -160 385 -77 q 102 -243 219 -243 l 102 -81 m 223 404 l 385 404 l 385 566 l 223 566 l 223 404 z "},";":{"ha":486,"x_min":102,"x_max":385,"o":"m 102 -81 q 187 -45 152 -81 q 223 40 223 -10 l 223 161 l 385 161 l 385 40 q 302 -160 385 -77 q 102 -243 219 -243 l 102 -81 m 223 404 l 385 404 l 385 566 l 223 566 l 223 404 z "},"?":{"ha":1699,"x_min":102,"x_max":1598,"o":"m 749 0 l 910 0 l 910 161 l 749 161 l 749 0 m 102 970 l 102 808 l 1315 808 q 1400 773 1365 808 q 1436 688 1436 737 q 1400 602 1436 637 q 1315 566 1365 566 l 749 566 l 749 243 l 910 243 l 910 404 l 1315 404 q 1514 488 1432 404 q 1598 688 1598 570 q 1514 887 1598 804 q 1315 970 1432 970 l 102 970 z "},"A":{"ha":2056,"x_min":102,"x_max":1954,"o":"m 956 970 l 102 0 l 317 0 l 460 161 l 1596 161 l 1738 0 l 1954 0 l 1100 970 l 956 970 m 1027 808 l 1454 323 l 602 323 l 1027 808 z "},"B":{"ha":1821,"x_min":102,"x_max":1719,"o":"m 263 566 l 1436 566 q 1522 602 1486 566 q 1557 688 1557 637 q 1522 773 1557 737 q 1436 808 1486 808 l 263 808 l 263 566 m 263 161 l 1436 161 q 1522 197 1486 161 q 1557 283 1557 233 q 1522 369 1557 333 q 1436 404 1486 404 l 263 404 l 263 161 m 102 0 l 102 970 l 1436 970 q 1636 887 1553 970 q 1719 688 1719 804 q 1634 485 1719 568 q 1719 283 1719 402 q 1636 83 1719 166 q 1436 0 1553 0 l 102 0 z "},"C":{"ha":1821,"x_min":102,"x_max":1719,"o":"m 1719 0 l 587 0 q 244 142 387 0 q 102 485 102 285 q 244 828 102 686 q 587 970 387 970 l 1719 970 l 1719 808 l 587 808 q 358 714 453 808 q 263 485 263 619 q 358 256 263 351 q 587 161 453 161 l 1719 161 l 1719 0 z "},"D":{"ha":1821,"x_min":102,"x_max":1719,"o":"m 263 161 l 263 808 l 1234 808 q 1462 714 1368 808 q 1557 485 1557 619 q 1462 256 1557 351 q 1234 161 1368 161 l 263 161 m 102 970 l 102 0 l 1234 0 q 1577 142 1434 0 q 1719 485 1719 285 q 1577 828 1719 686 q 1234 970 1434 970 l 102 970 z "},"E":{"ha":1821,"x_min":102,"x_max":1719,"o":"m 102 970 l 102 0 l 1719 0 l 1719 161 l 263 161 l 263 404 l 1719 404 l 1719 566 l 263 566 l 263 808 l 1719 808 l 1719 970 l 102 970 z "},"F":{"ha":1821,"x_min":102,"x_max":1719,"o":"m 102 970 l 102 0 l 263 0 l 263 404 l 1719 404 l 1719 566 l 263 566 l 263 808 l 1719 808 l 1719 970 l 102 970 z "},"G":{"ha":1821,"x_min":102,"x_max":1719,"o":"m 385 0 q 184 83 268 0 q 102 283 102 166 l 102 688 q 184 887 102 804 q 385 970 268 970 l 1476 970 q 1648 899 1577 970 q 1719 728 1719 828 l 1557 728 q 1533 785 1557 761 q 1476 808 1510 808 l 385 808 q 299 773 334 808 q 263 688 263 737 l 263 283 q 299 197 263 233 q 385 161 334 161 l 1436 161 q 1522 197 1486 161 q 1557 283 1557 233 l 1557 404 l 1072 404 l 1072 566 l 1719 566 l 1719 283 q 1636 83 1719 166 q 1436 0 1553 0 l 385 0 z "},"H":{"ha":1821,"x_min":102,"x_max":1719,"o":"m 1557 970 l 1557 566 l 263 566 l 263 970 l 102 970 l 102 0 l 263 0 l 263 404 l 1557 404 l 1557 0 l 1719 0 l 1719 970 l 1557 970 z "},"I":{"ha":365,"x_min":102,"x_max":263,"o":"m 102 0 l 263 0 l 263 970 l 102 970 l 102 0 z "},"J":{"ha":1335,"x_min":102,"x_max":1234,"o":"m 102 0 l 102 161 l 951 161 q 1036 197 1001 161 q 1072 283 1072 233 l 1072 970 l 1234 970 l 1234 283 q 1151 83 1234 166 q 951 0 1068 0 l 102 0 z "},"K":{"ha":1821,"x_min":102,"x_max":1719,"o":"m 1719 970 l 1557 970 l 1557 890 q 1462 661 1557 755 q 1234 566 1368 566 l 263 566 l 263 970 l 102 970 l 102 0 l 263 0 l 263 404 l 1234 404 q 1462 309 1368 404 q 1557 81 1557 214 l 1557 0 l 1719 0 l 1719 81 q 1659 313 1719 205 q 1501 485 1602 418 q 1659 656 1602 551 q 1719 890 1719 765 l 1719 970 z "},"L":{"ha":1821,"x_min":102,"x_max":1719,"o":"m 102 970 l 102 0 l 1719 0 l 1719 161 l 263 161 l 263 970 l 102 970 z "},"M":{"ha":1902,"x_min":102,"x_max":1800,"o":"m 1643 970 l 951 351 l 258 970 l 102 970 l 102 0 l 263 0 l 263 749 l 951 134 l 1638 749 l 1638 0 l 1800 0 l 1800 970 l 1643 970 z "},"N":{"ha":1821,"x_min":102,"x_max":1719,"o":"m 1557 970 l 1557 151 l 328 970 l 102 970 l 102 0 l 263 0 l 263 819 l 1493 0 l 1719 0 l 1719 970 l 1557 970 z "},"O":{"ha":1821,"x_min":102,"x_max":1719,"o":"m 385 808 q 299 773 334 808 q 263 688 263 737 l 263 283 q 299 197 263 233 q 385 161 334 161 l 1436 161 q 1522 197 1486 161 q 1557 283 1557 233 l 1557 688 q 1522 773 1557 737 q 1436 808 1486 808 l 385 808 m 385 0 q 184 83 268 0 q 102 283 102 166 l 102 688 q 184 887 102 804 q 385 970 268 970 l 1436 970 q 1636 887 1553 970 q 1719 688 1719 804 l 1719 283 q 1636 83 1719 166 q 1436 0 1553 0 l 385 0 z "},"P":{"ha":1821,"x_min":102,"x_max":1719,"o":"m 263 566 l 263 808 l 1436 808 q 1522 773 1486 808 q 1557 688 1557 737 q 1522 602 1557 637 q 1436 566 1486 566 l 263 566 m 102 970 l 102 0 l 263 0 l 263 404 l 1436 404 q 1636 488 1553 404 q 1719 688 1719 570 q 1636 887 1719 804 q 1436 970 1553 970 l 102 970 z "},"Q":{"ha":1821,"x_min":102,"x_max":1719,"o":"m 1557 283 q 1534 212 1557 243 q 1474 168 1511 180 l 1426 283 l 1244 283 l 1295 161 l 385 161 q 299 197 334 161 q 263 283 263 233 l 263 687 q 299 773 263 737 q 385 808 334 808 l 1436 808 q 1522 773 1486 808 q 1557 687 1557 737 l 1557 283 m 385 970 q 184 887 268 970 q 102 687 102 804 l 102 283 q 184 83 102 166 q 385 0 268 0 l 1364 0 l 1416 -121 l 1598 -121 l 1538 19 q 1668 121 1619 50 q 1719 283 1719 194 l 1719 687 q 1636 887 1719 804 q 1436 970 1553 970 l 385 970 z "},"R":{"ha":1821,"x_min":102,"x_max":1719,"o":"m 263 566 l 263 808 l 1436 808 q 1522 773 1486 808 q 1557 688 1557 737 q 1522 602 1557 637 q 1436 566 1486 566 l 263 566 m 1565 435 q 1676 538 1634 471 q 1719 688 1719 606 q 1636 887 1719 804 q 1436 970 1553 970 l 102 970 l 102 0 l 263 0 l 263 404 l 1234 404 q 1462 309 1368 404 q 1557 81 1557 214 l 1557 0 l 1719 0 l 1719 81 q 1565 435 1719 291 z "},"S":{"ha":1821,"x_min":102,"x_max":1719,"o":"m 142 0 l 142 161 l 1436 161 q 1522 197 1486 161 q 1557 283 1557 233 q 1522 369 1557 333 q 1436 404 1486 404 l 385 404 q 184 488 268 404 q 102 688 102 570 q 184 887 102 804 q 385 970 268 970 l 1678 970 l 1678 808 l 385 808 q 299 773 334 808 q 263 688 263 737 q 299 602 263 637 q 385 566 334 566 l 1436 566 q 1636 483 1553 566 q 1719 283 1719 400 q 1636 83 1719 166 q 1436 0 1553 0 l 142 0 z "},"T":{"ha":1821,"x_min":102,"x_max":1719,"o":"m 102 970 l 102 808 l 829 808 l 829 0 l 991 0 l 991 808 l 1719 808 l 1719 970 l 102 970 z "},"U":{"ha":1821,"x_min":102,"x_max":1719,"o":"m 385 0 q 184 83 268 0 q 102 283 102 166 l 102 970 l 263 970 l 263 283 q 299 197 263 233 q 385 161 334 161 l 1436 161 q 1522 197 1486 161 q 1557 283 1557 233 l 1557 970 l 1719 970 l 1719 283 q 1636 83 1719 166 q 1436 0 1553 0 l 385 0 z "},"V":{"ha":2058,"x_min":102,"x_max":1956,"o":"m 1744 970 l 1029 125 l 313 970 l 102 970 l 923 0 l 1135 0 l 1956 970 l 1744 970 z "},"W":{"ha":2626,"x_min":102,"x_max":2524,"o":"m 2316 970 l 1640 133 l 1383 485 l 1242 485 l 986 133 l 310 970 l 102 970 l 886 0 l 1089 0 l 1313 307 l 1536 0 l 1740 0 l 2524 970 l 2316 970 z "},"X":{"ha":1872,"x_min":102,"x_max":1770,"o":"m 1488 970 l 936 584 l 384 970 l 102 970 l 795 485 l 102 0 l 384 0 l 936 387 l 1488 0 l 1770 0 l 1077 485 l 1770 970 l 1488 970 z "},"Y":{"ha":1874,"x_min":102,"x_max":1773,"o":"m 1503 970 l 937 546 l 371 970 l 102 970 l 857 404 l 857 0 l 1018 0 l 1018 404 l 1773 970 l 1503 970 z "},"Z":{"ha":1821,"x_min":102,"x_max":1719,"o":"m 102 970 l 102 808 l 1326 808 l 102 128 l 102 0 l 1719 0 l 1719 161 l 494 161 l 1719 842 l 1719 970 l 102 970 z "},"_":{"ha":1335,"x_min":102,"x_max":1234,"o":"m 102 0 l 1234 0 l 1234 161 l 102 161 l 102 0 z "},"`":{"ha":486,"x_min":102,"x_max":385,"o":"m 102 1050 q 187 1014 152 1050 q 223 928 223 979 l 223 807 l 385 807 l 385 928 q 302 1128 385 1045 q 102 1211 219 1211 l 102 1050 z "},"a":{"ha":2056,"x_min":102,"x_max":1954,"o":"m 956 970 l 102 0 l 317 0 l 1027 808 l 1738 0 l 1954 0 l 1100 970 l 956 970 z "},"b":{"ha":1821,"x_min":102,"x_max":1719,"o":"m 263 566 l 1436 566 q 1522 602 1486 566 q 1557 688 1557 637 q 1522 773 1557 737 q 1436 808 1486 808 l 263 808 l 263 566 m 263 161 l 1436 161 q 1522 197 1486 161 q 1557 283 1557 233 q 1522 369 1557 333 q 1436 404 1486 404 l 263 404 l 263 161 m 102 0 l 102 970 l 1436 970 q 1636 887 1553 970 q 1719 688 1719 804 q 1634 485 1719 568 q 1719 283 1719 402 q 1636 83 1719 166 q 1436 0 1553 0 l 102 0 z "},"c":{"ha":1821,"x_min":102,"x_max":1719,"o":"m 1719 0 l 587 0 q 244 142 387 0 q 102 485 102 285 q 244 828 102 686 q 587 970 387 970 l 1719 970 l 1719 808 l 587 808 q 358 714 453 808 q 263 485 263 619 q 358 256 263 351 q 587 161 453 161 l 1719 161 l 1719 0 z "},"d":{"ha":1821,"x_min":102,"x_max":1719,"o":"m 102 970 l 102 808 l 1234 808 q 1462 714 1368 808 q 1557 485 1557 619 q 1462 256 1557 351 q 1234 161 1368 161 l 263 161 l 263 647 l 102 647 l 102 0 l 1234 0 q 1577 142 1434 0 q 1719 485 1719 285 q 1577 828 1719 686 q 1234 970 1434 970 l 102 970 z "},"e":{"ha":1821,"x_min":102,"x_max":1719,"o":"m 102 566 l 102 0 l 1719 0 l 1719 161 l 263 161 l 263 404 l 1719 404 l 1719 566 l 102 566 m 102 970 l 102 808 l 1719 808 l 1719 970 l 102 970 z "},"f":{"ha":1821,"x_min":102,"x_max":1719,"o":"m 102 566 l 102 0 l 263 0 l 263 404 l 1719 404 l 1719 566 l 102 566 m 102 970 l 102 808 l 1719 808 l 1719 970 l 102 970 z "},"g":{"ha":1821,"x_min":102,"x_max":1719,"o":"m 385 0 q 184 83 268 0 q 102 283 102 166 l 102 688 q 184 887 102 804 q 385 970 268 970 l 1476 970 q 1648 899 1577 970 q 1719 728 1719 828 l 1557 728 q 1533 785 1557 761 q 1476 808 1510 808 l 385 808 q 299 773 334 808 q 263 688 263 737 l 263 283 q 299 197 263 233 q 385 161 334 161 l 1436 161 q 1522 197 1486 161 q 1557 283 1557 233 l 1557 404 l 1072 404 l 1072 566 l 1719 566 l 1719 283 q 1636 83 1719 166 q 1436 0 1553 0 l 385 0 z "},"h":{"ha":1821,"x_min":102,"x_max":1719,"o":"m 1557 970 l 1557 566 l 263 566 l 263 970 l 102 970 l 102 0 l 263 0 l 263 404 l 1557 404 l 1557 0 l 1719 0 l 1719 970 l 1557 970 z "},"i":{"ha":365,"x_min":102,"x_max":263,"o":"m 102 0 l 263 0 l 263 970 l 102 970 l 102 0 z "},"j":{"ha":1335,"x_min":102,"x_max":1234,"o":"m 102 0 l 102 161 l 951 161 q 1036 197 1001 161 q 1072 283 1072 233 l 1072 970 l 1234 970 l 1234 283 q 1151 83 1234 166 q 951 0 1068 0 l 102 0 z "},"k":{"ha":1821,"x_min":102,"x_max":1719,"o":"m 1719 970 l 1557 970 l 1557 890 q 1462 661 1557 755 q 1234 566 1368 566 l 263 566 l 263 970 l 102 970 l 102 0 l 263 0 l 263 404 l 1234 404 q 1462 309 1368 404 q 1557 81 1557 214 l 1557 0 l 1719 0 l 1719 81 q 1659 313 1719 205 q 1501 485 1602 418 q 1659 656 1602 551 q 1719 890 1719 765 l 1719 970 z "},"l":{"ha":1821,"x_min":102,"x_max":1719,"o":"m 102 970 l 102 0 l 1719 0 l 1719 161 l 263 161 l 263 970 l 102 970 z "},"m":{"ha":1902,"x_min":102,"x_max":1800,"o":"m 1643 970 l 951 351 l 258 970 l 102 970 l 102 0 l 263 0 l 263 749 l 951 134 l 1638 749 l 1638 0 l 1800 0 l 1800 970 l 1643 970 z "},"n":{"ha":1821,"x_min":102,"x_max":1719,"o":"m 1557 970 l 1557 151 l 328 970 l 102 970 l 102 0 l 263 0 l 263 819 l 1493 0 l 1719 0 l 1719 970 l 1557 970 z "},"o":{"ha":1821,"x_min":102,"x_max":1719,"o":"m 385 808 q 299 773 334 808 q 263 688 263 737 l 263 283 q 299 197 263 233 q 385 161 334 161 l 1436 161 q 1522 197 1486 161 q 1557 283 1557 233 l 1557 688 q 1522 773 1557 737 q 1436 808 1486 808 l 385 808 m 385 0 q 184 83 268 0 q 102 283 102 166 l 102 688 q 184 887 102 804 q 385 970 268 970 l 1436 970 q 1636 887 1553 970 q 1719 688 1719 804 l 1719 283 q 1636 83 1719 166 q 1436 0 1553 0 l 385 0 z "},"p":{"ha":1821,"x_min":102,"x_max":1719,"o":"m 102 970 l 102 808 l 1436 808 q 1522 773 1486 808 q 1557 688 1557 737 q 1522 602 1557 637 q 1436 566 1486 566 l 102 566 l 102 0 l 263 0 l 263 404 l 1436 404 q 1636 488 1553 404 q 1719 688 1719 570 q 1636 887 1719 804 q 1436 970 1553 970 l 102 970 z "},"q":{"ha":1821,"x_min":102,"x_max":1719,"o":"m 1557 283 q 1534 212 1557 243 q 1474 168 1511 180 l 1426 283 l 1244 283 l 1295 161 l 385 161 q 299 197 334 161 q 263 283 263 233 l 263 687 q 299 773 263 737 q 385 808 334 808 l 1436 808 q 1522 773 1486 808 q 1557 687 1557 737 l 1557 283 m 385 970 q 184 887 268 970 q 102 687 102 804 l 102 283 q 184 83 102 166 q 385 0 268 0 l 1364 0 l 1416 -121 l 1598 -121 l 1538 19 q 1668 121 1619 50 q 1719 283 1719 194 l 1719 687 q 1636 887 1719 804 q 1436 970 1553 970 l 385 970 z "},"r":{"ha":1821,"x_min":102,"x_max":1719,"o":"m 1565 435 q 1676 538 1634 471 q 1719 688 1719 606 q 1636 887 1719 804 q 1436 970 1553 970 l 102 970 l 102 808 l 1436 808 q 1522 773 1486 808 q 1557 688 1557 737 q 1522 602 1557 637 q 1436 566 1486 566 l 102 566 l 102 0 l 263 0 l 263 404 l 1234 404 q 1462 309 1368 404 q 1557 81 1557 214 l 1557 0 l 1719 0 l 1719 81 q 1565 435 1719 291 z "},"s":{"ha":1821,"x_min":102,"x_max":1719,"o":"m 142 0 l 142 161 l 1436 161 q 1522 197 1486 161 q 1557 283 1557 233 q 1522 369 1557 333 q 1436 404 1486 404 l 385 404 q 184 488 268 404 q 102 688 102 570 q 184 887 102 804 q 385 970 268 970 l 1678 970 l 1678 808 l 385 808 q 299 773 334 808 q 263 688 263 737 q 299 602 263 637 q 385 566 334 566 l 1436 566 q 1636 483 1553 566 q 1719 283 1719 400 q 1636 83 1719 166 q 1436 0 1553 0 l 142 0 z "},"t":{"ha":1821,"x_min":102,"x_max":1719,"o":"m 102 970 l 102 808 l 829 808 l 829 0 l 991 0 l 991 808 l 1719 808 l 1719 970 l 102 970 z "},"u":{"ha":1821,"x_min":102,"x_max":1719,"o":"m 385 0 q 184 83 268 0 q 102 283 102 166 l 102 970 l 263 970 l 263 283 q 299 197 263 233 q 385 161 334 161 l 1436 161 q 1522 197 1486 161 q 1557 283 1557 233 l 1557 970 l 1719 970 l 1719 283 q 1636 83 1719 166 q 1436 0 1553 0 l 385 0 z "},"v":{"ha":2058,"x_min":102,"x_max":1956,"o":"m 1744 970 l 1029 125 l 313 970 l 102 970 l 923 0 l 1135 0 l 1956 970 l 1744 970 z "},"w":{"ha":2626,"x_min":102,"x_max":2524,"o":"m 2316 970 l 1640 133 l 1383 485 l 1242 485 l 986 133 l 310 970 l 102 970 l 886 0 l 1089 0 l 1313 307 l 1536 0 l 1740 0 l 2524 970 l 2316 970 z "},"x":{"ha":1872,"x_min":102,"x_max":1770,"o":"m 1488 970 l 936 584 l 384 970 l 102 970 l 795 485 l 102 0 l 384 0 l 936 387 l 1488 0 l 1770 0 l 1077 485 l 1770 970 l 1488 970 z "},"y":{"ha":1874,"x_min":102,"x_max":1773,"o":"m 1503 970 l 937 546 l 371 970 l 102 970 l 857 404 l 857 0 l 1018 0 l 1018 404 l 1773 970 l 1503 970 z "},"z":{"ha":1821,"x_min":102,"x_max":1719,"o":"m 102 970 l 102 808 l 1326 808 l 102 128 l 102 0 l 1719 0 l 1719 161 l 494 161 l 1719 842 l 1719 970 l 102 970 z "},"‘":{"ha":486,"x_min":102,"x_max":385,"o":"m 385 1052 q 299 1016 334 1052 q 263 930 263 981 l 263 809 l 102 809 l 102 930 q 184 1131 102 1047 q 385 1213 268 1213 l 385 1052 z "},"’":{"ha":486,"x_min":102,"x_max":385,"o":"m 102 1050 q 187 1014 152 1050 q 223 928 223 979 l 223 807 l 385 807 l 385 928 q 302 1128 385 1045 q 102 1211 219 1211 l 102 1050 z "},"“":{"ha":486,"x_min":102,"x_max":385,"o":"m 385 1052 q 299 1016 334 1052 q 263 930 263 981 l 263 809 l 102 809 l 102 930 q 184 1131 102 1047 q 385 1213 268 1213 l 385 1052 z "},"”":{"ha":486,"x_min":102,"x_max":385,"o":"m 102 1050 q 187 1014 152 1050 q 223 928 223 979 l 223 807 l 385 807 l 385 928 q 302 1128 385 1045 q 102 1211 219 1211 l 102 1050 z "},"":{"ha":728,"x_min":0,"x_max":0,"o":""},"ﬁ":{"ha":728,"x_min":0,"x_max":0,"o":""},"":{"ha":733,"x_min":0,"x_max":0,"o":""},"ﬂ":{"ha":733,"x_min":0,"x_max":0,"o":""}}}
